<svg xmlns="http://www.w3.org/2000/svg" width="244.338" height="107.856" viewBox="0 0 244.338 107.856">
  <g transform="translate(-838 -7695.851)">
    <g transform="translate(838 7766.524)">
      <path d="M0,41.263v1.565H8.134v10.6h1.894v-10.6h8.134V41.263Z" transform="translate(0 -40.916)" fill="gray"/>
      <path d="M28.412,46.495V41.263h1.894V53.429H28.412V48.06H14.994v5.369H13.117V41.263h1.877v5.232Z" transform="translate(9.494 -40.916)" fill="gray"/>
      <path d="M41.992,46.513v1.529H28.469v3.823H42.235v1.563H26.609V41.263H42.235v1.565H28.469v3.685Z" transform="translate(19.258 -40.916)" fill="gray"/>
      <path d="M58.9,46.739V48.27H45.761v5.159H43.884V41.263H59.146v1.565H45.761v3.911Z" transform="translate(31.761 -40.917)" fill="gray"/>
      <path d="M72.63,43.217a5.737,5.737,0,0,1,1.563,4.277,5.656,5.656,0,0,1-1.582,4.258c-1.146,1.165-3.441,2.172-7.978,2.172-4.518,0-6.812-1.007-7.96-2.155a5.728,5.728,0,0,1-1.581-4.275,5.706,5.706,0,0,1,1.581-4.277c1.165-1.164,3.442-2.155,7.96-2.155,4.537,0,6.831.991,8,2.155M58.168,44.225a4.227,4.227,0,0,0-1.182,3.268,4.184,4.184,0,0,0,1.2,3.249c.884.888,2.832,1.669,6.447,1.669,3.632,0,5.563-.748,6.483-1.669A4.254,4.254,0,0,0,72.3,47.493a4.223,4.223,0,0,0-1.2-3.249c-.92-.922-2.834-1.67-6.466-1.67-3.615,0-5.544.731-6.466,1.651" transform="translate(39.874 -41.062)" fill="gray"/>
      <path d="M84.6,51.8V41.263h1.877V53.43H83.832L71.04,42.792V53.43H69.18V41.263h2.744Z" transform="translate(50.069 -40.917)" fill="gray"/>
      <path d="M99.969,42.828H91.835v10.6H89.94v-10.6H81.806V41.263H99.969Z" transform="translate(59.207 -40.917)" fill="gray"/>
      <path d="M110.33,46.513v1.529H96.809v3.823h13.766v1.563H94.949V41.263h15.626v1.565H96.809v3.685Z" transform="translate(68.719 -40.917)" fill="gray"/>
      <path d="M122.5,51.8V41.263h1.877V53.43h-2.641L108.941,42.792V53.43h-1.86V41.263h2.744Z" transform="translate(77.5 -40.917)" fill="gray"/>
      <path d="M130.871,41.223l8.777,12.235h-2.189L135.285,50.4H123.779l-2.155,3.056h-2.086l8.777-12.235Zm-6,7.631h9.317l-4.64-6.569Z" transform="translate(86.516 -40.946)" fill="gray"/>
      <path d="M140.279,47.069l6.848-5.806h2.5V41.3l-8.448,7.126v5.006h-1.893V48.46L130.857,41.3v-.034h2.556Z" transform="translate(94.708 -40.917)" fill="gray"/>
      <path d="M52.676,61.5V58.509h1.082v6.952H52.676v-3.07H45.009v3.07H43.937V58.509h1.072V61.5Z" transform="translate(31.799 -28.435)" fill="gray"/>
      <path d="M57.748,58.486l5.016,6.992H61.513l-1.241-1.746H53.7l-1.232,1.746H51.272l5.018-6.992Zm-3.425,4.359h5.323l-2.651-3.754Z" transform="translate(37.108 -28.452)" fill="gray"/>
      <path d="M72.373,65.461H71.3v-6.2l-4.606,6.2H65.242l-4.608-6.2v6.2H59.571V58.509h1.758l4.658,6.305,4.668-6.305h1.719Z" transform="translate(43.114 -28.435)" fill="gray"/>
      <path d="M69.252,58.509H75.2c1.817,0,2.611.188,3.127.7a1.439,1.439,0,0,1,.417,1.114c0,.853-.526,1.381-1.688,1.6,1.2.2,1.8.695,1.8,1.627a1.565,1.565,0,0,1-.438,1.153c-.505.515-1.439.755-3.258.755H69.252Zm5.869.872H70.314v2.137h4.808c1.519,0,1.986-.152,2.282-.459a.8.8,0,0,0,.229-.615.824.824,0,0,0-.229-.626c-.326-.328-.891-.438-2.282-.438m0,2.989H70.314v2.236h4.9c1.35,0,1.946-.1,2.284-.438a.879.879,0,0,0,.257-.674.859.859,0,0,0-.236-.657c-.35-.346-1.065-.467-2.394-.467" transform="translate(50.121 -28.435)" fill="gray"/>
      <path d="M84.824,63.912a2.176,2.176,0,0,0,.565-1.65V58.508h1.072V62.39a2.781,2.781,0,0,1-.795,2.137c-.6.614-1.746,1.091-4.1,1.091s-3.485-.477-4.092-1.091a2.787,2.787,0,0,1-.795-2.137V58.508h1.074v3.754a2.182,2.182,0,0,0,.565,1.65c.477.474,1.431.826,3.248.826s2.782-.352,3.258-.826" transform="translate(55.496 -28.435)" fill="gray"/>
      <path d="M90.181,58.508c2.006,0,2.653.26,3.13.734a2.016,2.016,0,0,1,.526,1.482,1.978,1.978,0,0,1-.546,1.488c-.417.417-1.043.738-2.672.784l4.063,2.434v.031h-1.65L88.99,63H85.544v2.465H84.47V58.508Zm-4.637,3.627h4.647c1.391,0,1.956-.188,2.255-.488a1.168,1.168,0,0,0,.317-.893,1.187,1.187,0,0,0-.338-.915c-.3-.3-.814-.438-2.234-.438H85.544Z" transform="translate(61.135 -28.435)" fill="gray"/>
      <path d="M102.216,61.83v.636a2.778,2.778,0,0,1-.724,2.118c-.686.683-1.988,1.1-4.3,1.1-2.751,0-3.9-.576-4.558-1.232a3.677,3.677,0,0,1,0-4.808c.655-.652,1.875-1.227,4.468-1.227a11.433,11.433,0,0,1,4.58.793v1A10.382,10.382,0,0,0,97.1,59.3c-2.1,0-3.089.4-3.613.917a2.877,2.877,0,0,0-.01,3.672c.517.508,1.458.933,3.723.933,1.8,0,2.941-.286,3.456-.8a1.747,1.747,0,0,0,.457-1.31H96.376V61.83Z" transform="translate(66.395 -28.501)" fill="gray"/>
    </g>
    <g transform="translate(911.251 7696)">
      <path d="M91.654,28.356c-3.065-1.376-18.056-8.932-27.744-8.9-11.063.036-20.628,4.115-21.369,9.113s7.633,9.007,18.7,8.964c9.789-.033,28.409-8.434,31.317-9.693s17.287-8.419,26.734-8.384c11.061.036,20.628,4.115,21.369,9.113s-7.634,8.964-18.7,8.964C111.661,37.537,94.719,29.732,91.654,28.356Z" transform="translate(-42.495 13.827)" fill="none" stroke="gray" stroke-miterlimit="10" stroke-width="0.3"/>
      <line x1="0.021" transform="translate(49.039 13.664)" fill="none" stroke="gray" stroke-miterlimit="10" stroke-width="0.3"/>
      <path d="M76.279,22.857c5.521-2.494,16.084-6.973,23.558-6.945,11.061.034,20.628,4.113,21.369,9.112s-7.634,8.964-18.7,8.964c-10.3,0-27.24-7.8-30.305-9.181-.567-.255-1.548-.724-2.827-1.315" transform="translate(-23.042 11.259)" fill="none" stroke="gray" stroke-miterlimit="10" stroke-width="0.3"/>
      <path d="M88.828,23.49c-5.619-2.6-17.027-7.609-24.919-7.578-11.061.033-20.626,4.111-21.369,9.112s7.634,9.007,18.7,8.962c9.789-.029,28.409-8.433,31.317-9.691.61-.262,1.715-.781,3.175-1.439" transform="translate(-42.495 11.259)" fill="none" stroke="gray" stroke-miterlimit="10" stroke-width="0.3"/>
      <line x1="0.021" transform="translate(49.039 13.664)" fill="none" stroke="gray" stroke-miterlimit="10" stroke-width="0.3"/>
      <path d="M79.314,30.4s-4.668-2.11-9.3-4.523c-5.233-2.722-10.634-6.274-10.634-8.639,0-5.006,9.674-9.122,19.916-9.122s19.97,4.147,19.97,9.122c0,2.37-5.476,5.825-10.661,8.651C83.982,28.4,79.314,30.394,79.314,30.4Z" transform="translate(-30.278 5.614)" fill="none" stroke="gray" stroke-miterlimit="10" stroke-width="0.3"/>
      <line x1="0.021" transform="translate(49.039 6.832)" fill="none" stroke="gray" stroke-miterlimit="10" stroke-width="0.3"/>
      <path d="M76.279,18.893c5.521-2.5,16.084-6.973,23.558-6.945,11.061.036,20.628,4.113,21.369,9.113s-7.634,8.962-18.7,8.962c-10.3,0-27.24-7.8-30.305-9.179-.567-.257-1.548-.724-2.827-1.319" transform="translate(-23.042 8.391)" fill="none" stroke="gray" stroke-miterlimit="10" stroke-width="0.3"/>
      <path d="M88.828,19.527c-5.619-2.6-17.027-7.607-24.919-7.578-11.061.036-20.626,4.113-21.369,9.113s7.634,9,18.7,8.962c9.789-.031,28.409-8.433,31.317-9.691.61-.26,1.715-.781,3.175-1.439" transform="translate(-42.495 8.391)" fill="none" stroke="gray" stroke-miterlimit="10" stroke-width="0.3"/>
      <line x1="0.021" transform="translate(49.039 6.832)" fill="none" stroke="gray" stroke-miterlimit="10" stroke-width="0.3"/>
      <path d="M79.314,26.434s-4.668-2.112-9.3-4.525c-5.233-2.722-10.634-6.274-10.634-8.638,0-5.006,9.674-9.124,19.916-9.124s19.97,4.147,19.97,9.124c0,2.37-5.476,5.825-10.661,8.653C83.982,24.443,79.314,26.434,79.314,26.434Z" transform="translate(-30.278 2.745)" fill="none" stroke="gray" stroke-miterlimit="10" stroke-width="0.3"/>
      <path d="M70.965.151l-.021,0" transform="translate(-21.905 -0.149)" fill="none" stroke="gray" stroke-miterlimit="10" stroke-width="0.3"/>
      <path d="M76.279,14.93c5.521-2.5,16.084-6.973,23.558-6.943,11.061.034,20.628,4.113,21.369,9.112s-7.634,8.962-18.7,8.962c-10.3,0-27.24-7.8-30.305-9.179-.567-.257-1.548-.724-2.827-1.319" transform="translate(-23.042 5.524)" fill="none" stroke="gray" stroke-miterlimit="10" stroke-width="0.3"/>
      <path d="M88.828,15.564c-5.619-2.6-17.027-7.607-24.919-7.578C52.848,8.022,43.283,12.1,42.54,17.1s7.634,9.007,18.7,8.962c9.789-.031,28.409-8.434,31.317-9.689.61-.262,1.715-.784,3.175-1.441" transform="translate(-42.495 5.523)" fill="none" stroke="gray" stroke-miterlimit="10" stroke-width="0.3"/>
      <path d="M70.965.151l-.021,0" transform="translate(-21.905 -0.149)" fill="none" stroke="gray" stroke-miterlimit="10" stroke-width="0.3"/>
      <path d="M79.314,22.47s-4.668-2.11-9.3-4.523c-5.233-2.724-10.634-6.274-10.634-8.639,0-5,9.674-9.122,19.916-9.122s19.97,4.147,19.97,9.122c0,2.37-5.476,5.825-10.661,8.653C83.982,20.477,79.314,22.47,79.314,22.47Z" transform="translate(-30.278 -0.123)" fill="none" stroke="gray" stroke-miterlimit="10" stroke-width="0.3"/>
    </g>
  </g>
</svg>
